# xmcd
#
# Track frame offsets: 
#        150
#        26146
#        43603
#        57238
#        101092
#        132169
#        152315
#        176370
#
# Disc length: 2686 seconds
#
# Revision: 2
# Processed by: cddbd v1.5.2PL0 Copyright (c) Steve Scherf et al.
# Submitted via: ExactAudioCopy v0.99pb5
#
DISCID=5e0a7c08
DTITLE=Gingerpig - The Ways Of The Gingerpig
DYEAR=2011
DGENRE=fusion
TTITLE0=Indefinite Muddle Of Conspiracies
TTITLE1=Pipedream
TTITLE2=March Of The Gingerpig
TTITLE3=Dimlighted Heart
TTITLE4=Digging With Bare Hands
TTITLE5=Undefined Call
TTITLE6=Joe Cool (The Fool)
TTITLE7=Blind To Reason
EXTD=
EXTT0=
EXTT1=
EXTT2=
EXTT3=
EXTT4=
EXTT5=
EXTT6=
EXTT7=
PLAYORDER=
